<svg width="40" height="40" viewBox="0 0 40 40" fill="none" xmlns="http://www.w3.org/2000/svg">
<rect width="40" height="40" rx="20" fill="#F5F7F9"/>
<path d="M15.6 15.9998C15.6 16.8485 15.9371 17.6624 16.5373 18.2625C17.1374 18.8627 17.9513 19.1998 18.8 19.1998C19.6487 19.1998 20.4626 18.8627 21.0627 18.2625C21.6629 17.6624 22 16.8485 22 15.9998C22 15.1511 21.6629 14.3372 21.0627 13.7371C20.4626 13.1369 19.6487 12.7998 18.8 12.7998C17.9513 12.7998 17.1374 13.1369 16.5373 13.7371C15.9371 14.3372 15.6 15.1511 15.6 15.9998Z" stroke="#5C4FC3" stroke-width="2" stroke-linecap="round" stroke-linejoin="round"/>
<path d="M14 27.2004V25.6004C14 24.7517 14.3371 23.9378 14.9373 23.3376C15.5374 22.7375 16.3513 22.4004 17.2 22.4004H20.4" stroke="#5C4FC3" stroke-width="2" stroke-linecap="round" stroke-linejoin="round"/>
<path d="M21.2 25.599L22.8 27.199L26 23.999" stroke="#5C4FC3" stroke-width="2" stroke-linecap="round" stroke-linejoin="round"/>
</svg>
