<svg width="40" height="40" viewBox="0 0 40 40" fill="none" xmlns="http://www.w3.org/2000/svg">
<rect width="40" height="40" rx="20" fill="#F5F7F9"/>
<g clip-path="url(#clip0_360_3479)">
<path d="M15.4348 16.7386C15.4348 17.4304 15.7096 18.094 16.1988 18.5832C16.688 19.0724 17.3516 19.3473 18.0434 19.3473C18.7353 19.3473 19.3989 19.0724 19.8881 18.5832C20.3773 18.094 20.6521 17.4304 20.6521 16.7386C20.6521 16.0467 20.3773 15.3832 19.8881 14.894C19.3989 14.4047 18.7353 14.1299 18.0434 14.1299C17.3516 14.1299 16.688 14.4047 16.1988 14.894C15.7096 15.3832 15.4348 16.0467 15.4348 16.7386Z" stroke="#5C4FC3" stroke-width="2" stroke-linecap="round" stroke-linejoin="round"/>
<path d="M14.1304 25.8691V24.5648C14.1304 23.8729 14.4052 23.2093 14.8944 22.7201C15.3837 22.2309 16.0472 21.9561 16.7391 21.9561H19.3478C20.0396 21.9561 20.7032 22.2309 21.1924 22.7201C21.6816 23.2093 21.9565 23.8729 21.9565 24.5648V25.8691" stroke="#5C4FC3" stroke-width="2" stroke-linecap="round" stroke-linejoin="round"/>
<path d="M22.6086 14.2148C23.1698 14.3585 23.6671 14.6849 24.0223 15.1424C24.3775 15.6 24.5703 16.1628 24.5703 16.742C24.5703 17.3213 24.3775 17.884 24.0223 18.3416C23.6671 18.7992 23.1698 19.1255 22.6086 19.2692" stroke="#5C4FC3" stroke-width="2" stroke-linecap="round" stroke-linejoin="round"/>
<path d="M25.8695 25.8699V24.5656C25.8662 23.9898 25.6725 23.4313 25.3186 22.9771C24.9647 22.523 24.4705 22.1986 23.913 22.0547" stroke="#5C4FC3" stroke-width="2" stroke-linecap="round" stroke-linejoin="round"/>
</g>
<defs>
<clipPath id="clip0_360_3479">
<rect width="15.6522" height="15.6522" fill="white" transform="translate(12.1739 12.1738)"/>
</clipPath>
</defs>
</svg>
