<svg width="39" height="44" viewBox="0 0 39 44" fill="none" xmlns="http://www.w3.org/2000/svg">
<path d="M36.9348 12.3599C36.1987 11.107 35.1472 10.0368 33.8328 9.27978C31.8875 8.17042 29.6004 7.84414 27.4185 8.37924C25.7492 8.78383 24.1588 9.4364 22.7655 10.3239L14.0641 15.7793V40.3941L11.5668 38.5278V14.422L19.7949 9.25368C19.7949 9.25368 19.8081 9.25368 19.8081 9.24063C22.2397 7.80499 24.7634 5.91254 28.3912 6.14747L27.7208 5.76898L25.2103 4.33334C25.1051 4.28113 25 4.21587 24.8948 4.17672C24.1982 3.78518 23.4359 3.61551 22.6604 3.61551C20.4916 3.61551 18.1782 4.89454 16.6272 5.9517L7.03207 12.5296V35.1344L4.5347 33.2681V11.2244L13.1835 5.28608C16.2461 3.19787 18.3622 1.9841 21.0173 1.91884L20.3864 1.55341L19.6372 1.12271C16.6667 -0.560904 12.9995 -0.339032 10.2787 1.69697L0 9.38419V34.1164L10.2787 41.8036C12.9995 43.8396 16.6667 44.0615 19.6109 42.3779L22.3975 40.7726L33.8197 34.2208C36.4485 32.7199 38.052 29.94 38.052 26.9382V16.5624C38.0783 15.0615 37.6709 13.6128 36.9348 12.3599ZM34.6609 26.9382C34.6609 28.7262 33.6882 30.3968 32.1241 31.2973L18.5857 39.0629V17.737L26.8007 13.0255C26.8139 13.0255 26.8139 13.0125 26.827 13.0125C27.2345 12.7645 29.4427 11.2375 31.848 12.3207C33.6751 13.143 34.4506 14.2393 34.6214 16.6016C34.6214 16.6277 34.6214 16.6538 34.6214 16.6799C34.6477 16.9801 34.6609 17.2933 34.6609 17.6326V26.9382Z" fill="url(#paint0_linear_11_711)"/>
<path d="M28.9038 14.6956L21.0699 19.1853V34.7686L30.8622 29.1565C31.6509 28.6997 32.1372 27.8644 32.1372 26.9508V16.5489C32.1372 14.9045 30.3365 13.8734 28.9038 14.6956Z" fill="url(#paint1_linear_11_711)"/>
<defs>
<linearGradient id="paint0_linear_11_711" x1="4.90987" y1="4.17142" x2="29.0784" y2="38.5836" gradientUnits="userSpaceOnUse">
<stop stop-color="#2FE6CF"/>
<stop offset="1" stop-color="#5C4FC3"/>
</linearGradient>
<linearGradient id="paint1_linear_11_711" x1="9.32985" y1="1.06673" x2="33.4984" y2="35.4789" gradientUnits="userSpaceOnUse">
<stop stop-color="#2FE6CF"/>
<stop offset="1" stop-color="#5C4FC3"/>
</linearGradient>
</defs>
</svg>
