<svg width="40" height="40" viewBox="0 0 40 40" fill="none" xmlns="http://www.w3.org/2000/svg">
<path d="M15.9637 4.29991C18.1504 1.97041 21.8496 1.97041 24.0363 4.29991C25.1244 5.45912 26.6584 6.09453 28.2476 6.04428C31.441 5.94329 34.0567 8.55902 33.9557 11.7524C33.9055 13.3416 34.5409 14.8756 35.7001 15.9637C38.0296 18.1504 38.0296 21.8496 35.7001 24.0363C34.5409 25.1244 33.9055 26.6584 33.9557 28.2476C34.0567 31.441 31.441 34.0567 28.2476 33.9557C26.6584 33.9055 25.1244 34.5409 24.0363 35.7001C21.8496 38.0296 18.1504 38.0296 15.9637 35.7001C14.8756 34.5409 13.3416 33.9055 11.7524 33.9557C8.55902 34.0567 5.94329 31.441 6.04428 28.2476C6.09453 26.6584 5.45912 25.1244 4.29991 24.0363C1.97041 21.8496 1.97041 18.1504 4.29991 15.9637C5.45912 14.8756 6.09453 13.3416 6.04428 11.7524C5.94329 8.55902 8.55902 5.94329 11.7524 6.04428C13.3416 6.09453 14.8756 5.45912 15.9637 4.29991Z" fill="#5C4FC3"/>
<g clip-path="url(#clip0_71_3553)">
<path d="M15.0845 16.74C15.0845 17.4319 15.3594 18.0954 15.8486 18.5847C16.3378 19.0739 17.0014 19.3487 17.6932 19.3487C18.3851 19.3487 19.0486 19.0739 19.5379 18.5847C20.0271 18.0954 20.3019 17.4319 20.3019 16.74C20.3019 16.0482 20.0271 15.3846 19.5379 14.8954C19.0486 14.4062 18.3851 14.1313 17.6932 14.1313C17.0014 14.1313 16.3378 14.4062 15.8486 14.8954C15.3594 15.3846 15.0845 16.0482 15.0845 16.74Z" stroke="white" stroke-width="2" stroke-linecap="round" stroke-linejoin="round"/>
<path d="M13.7802 25.8706V24.5662C13.7802 23.8743 14.055 23.2108 14.5443 22.7216C15.0335 22.2324 15.697 21.9575 16.3889 21.9575H18.9976C19.6894 21.9575 20.353 22.2324 20.8422 22.7216C21.3314 23.2108 21.6063 23.8743 21.6063 24.5662V25.8706" stroke="white" stroke-width="2" stroke-linecap="round" stroke-linejoin="round"/>
<path d="M22.2585 14.2163C22.8196 14.36 23.317 14.6863 23.6721 15.1439C24.0273 15.6015 24.2201 16.1642 24.2201 16.7435C24.2201 17.3227 24.0273 17.8855 23.6721 18.3431C23.317 18.8006 22.8196 19.127 22.2585 19.2707" stroke="white" stroke-width="2" stroke-linecap="round" stroke-linejoin="round"/>
<path d="M25.5193 25.8704V24.566C25.516 23.9903 25.3223 23.4318 24.9684 22.9776C24.6145 22.5234 24.1203 22.1991 23.5628 22.0552" stroke="white" stroke-width="2" stroke-linecap="round" stroke-linejoin="round"/>
</g>
<defs>
<clipPath id="clip0_71_3553">
<rect width="15.6522" height="15.6522" fill="white" transform="translate(11.8237 12.1748)"/>
</clipPath>
</defs>
</svg>
