<svg width="40" height="40" viewBox="0 0 40 40" fill="none" xmlns="http://www.w3.org/2000/svg">
<path d="M15.9637 4.29991C18.1504 1.97041 21.8496 1.97041 24.0363 4.29991C25.1244 5.45912 26.6584 6.09453 28.2476 6.04428C31.441 5.94329 34.0567 8.55902 33.9557 11.7524C33.9055 13.3416 34.5409 14.8756 35.7001 15.9637C38.0296 18.1504 38.0296 21.8496 35.7001 24.0363C34.5409 25.1244 33.9055 26.6584 33.9557 28.2476C34.0567 31.441 31.441 34.0567 28.2476 33.9557C26.6584 33.9055 25.1244 34.5409 24.0363 35.7001C21.8496 38.0296 18.1504 38.0296 15.9637 35.7001C14.8756 34.5409 13.3416 33.9055 11.7524 33.9557C8.55902 34.0567 5.94329 31.441 6.04428 28.2476C6.09453 26.6584 5.45912 25.1244 4.29991 24.0363C1.97041 21.8496 1.97041 18.1504 4.29991 15.9637C5.45912 14.8756 6.09453 13.3416 6.04428 11.7524C5.94329 8.55902 8.55902 5.94329 11.7524 6.04428C13.3416 6.09453 14.8756 5.45912 15.9637 4.29991Z" fill="#FF6465"/>
<g clip-path="url(#clip0_71_3609)">
<path d="M26.117 20.8425C26.2371 19.9226 26.1595 18.9877 25.8895 18.1001C25.6194 17.2126 25.163 16.3929 24.5509 15.6958C23.9387 14.9988 23.1848 14.4404 22.3396 14.0579C21.4944 13.6754 20.5773 13.4777 19.6496 13.478C17.9199 13.478 16.2611 14.1651 15.038 15.3882C13.815 16.6113 13.1279 18.2701 13.1279 19.9998C13.1279 21.7294 13.815 23.3883 15.038 24.6113C16.2611 25.8344 17.9199 26.5215 19.6496 26.5215" stroke="white" stroke-width="2" stroke-linecap="round" stroke-linejoin="round"/>
<path d="M17.4757 18.5508H17.4832" stroke="white" stroke-width="2" stroke-linecap="round" stroke-linejoin="round"/>
<path d="M21.8235 18.5508H21.831" stroke="white" stroke-width="2" stroke-linecap="round" stroke-linejoin="round"/>
<path d="M17.838 22.1738C18.3148 22.6376 18.9684 22.8985 19.6496 22.8985C20.3308 22.8985 20.9844 22.6376 21.4612 22.1738" stroke="white" stroke-width="2" stroke-linecap="round" stroke-linejoin="round"/>
<path d="M21.8235 25.0723L23.2728 26.5216L26.1713 23.623" stroke="white" stroke-width="2" stroke-linecap="round" stroke-linejoin="round"/>
</g>
<defs>
<clipPath id="clip0_71_3609">
<rect width="17.3913" height="17.3913" fill="white" transform="translate(10.9539 11.3042)"/>
</clipPath>
</defs>
</svg>
