<svg width="42" height="40" viewBox="0 0 42 40" fill="none" xmlns="http://www.w3.org/2000/svg">
<path d="M16.7679 4.2938C19.0889 1.93897 22.9111 1.93897 25.2321 4.2938C26.3788 5.45721 27.9632 6.09538 29.5959 6.04621L30.0142 6.03361C33.1753 5.9384 35.76 8.54509 35.6551 11.7059C35.6016 13.3158 36.2645 14.8725 37.4654 15.9461C39.8835 18.1078 39.8835 21.8922 37.4654 24.0539C36.2645 25.1275 35.6016 26.6842 35.6551 28.2941C35.76 31.4549 33.1753 34.0616 30.0142 33.9664L29.5959 33.9538C27.9632 33.9046 26.3788 34.5428 25.2321 35.7062C22.9111 38.061 19.0889 38.061 16.7679 35.7062C15.6212 34.5428 14.0368 33.9046 12.4041 33.9538L11.9858 33.9664C8.82469 34.0616 6.23999 31.4549 6.34495 28.2941C6.39841 26.6842 5.7355 25.1275 4.5346 24.0539C2.11654 21.8922 2.11654 18.1078 4.5346 15.9461C5.7355 14.8725 6.39841 13.3158 6.34495 11.7059C6.23999 8.54509 8.82469 5.9384 11.9858 6.03361L12.4041 6.04621C14.0368 6.09538 15.6212 5.45721 16.7679 4.2938Z" fill="#0A833C"/>
<g clip-path="url(#clip0_71_3464)">
<path fill-rule="evenodd" clip-rule="evenodd" d="M23.3711 19.5651C23.3711 19.7957 23.4672 20.0169 23.6385 20.1799C23.8097 20.343 24.0419 20.4346 24.2841 20.4346C24.5263 20.4346 24.7585 20.343 24.9297 20.1799C25.1009 20.0169 25.1971 19.7957 25.1971 19.5651V17.3912H26.8342C28.0541 17.3912 28.6649 15.9859 27.8021 15.1651L23.4258 10.9946C23.2986 10.8734 23.1476 10.7773 22.9814 10.7117C22.8152 10.6461 22.637 10.6123 22.4571 10.6123C22.2772 10.6123 22.099 10.6461 21.9328 10.7117C21.7666 10.7773 21.6155 10.8734 21.4884 10.9946L17.114 15.1651C16.2493 15.9859 16.8611 17.3912 18.0809 17.3912H19.7189V23.4781C19.7189 23.7087 19.8151 23.9299 19.9863 24.093C20.1575 24.2561 20.3898 24.3477 20.6319 24.3477H22.0809L18.8058 27.4659L15.5317 24.3477H16.9797C17.2219 24.3477 17.4541 24.2561 17.6254 24.093C17.7966 23.9299 17.8928 23.7087 17.8928 23.4781V20.4346C17.8928 20.204 17.7966 19.9828 17.6254 19.8198C17.4541 19.6567 17.2219 19.5651 16.9797 19.5651C16.7376 19.5651 16.5054 19.6567 16.3341 19.8198C16.1629 19.9828 16.0667 20.204 16.0667 20.4346V22.6085H14.4296C13.2098 22.6085 12.5981 24.0129 13.4618 24.8346L17.8371 29.0033C17.9643 29.1245 18.1153 29.2207 18.2815 29.2863C18.4477 29.3519 18.6259 29.3857 18.8058 29.3857C18.9858 29.3857 19.1639 29.3519 19.3301 29.2863C19.4964 29.2207 19.6474 29.1245 19.7746 29.0033L24.1508 24.8346C25.0136 24.0129 24.4019 22.6085 23.1821 22.6085H21.545V19.9999C21.5451 19.992 21.5451 19.9842 21.545 19.9764V16.5216C21.545 16.291 21.4488 16.0698 21.2775 15.9067C21.1063 15.7436 20.8741 15.652 20.6319 15.652H19.1829L22.458 12.5329L25.7322 15.652H24.2841C24.0419 15.652 23.8097 15.7436 23.6385 15.9067C23.4672 16.0698 23.3711 16.291 23.3711 16.5216V19.5651Z" fill="white"/>
</g>
<defs>
<clipPath id="clip0_71_3464">
<rect width="21.913" height="20.8696" fill="white" transform="translate(9.67542 9.56494)"/>
</clipPath>
</defs>
</svg>
