<svg width="40" height="40" viewBox="0 0 40 40" fill="none" xmlns="http://www.w3.org/2000/svg">
<path d="M15.9637 4.29991C18.1504 1.97041 21.8496 1.97041 24.0363 4.29991C25.1244 5.45912 26.6584 6.09453 28.2476 6.04428C31.441 5.94329 34.0567 8.55902 33.9557 11.7524C33.9055 13.3416 34.5409 14.8756 35.7001 15.9637C38.0296 18.1504 38.0296 21.8496 35.7001 24.0363C34.5409 25.1244 33.9055 26.6584 33.9557 28.2476C34.0567 31.441 31.441 34.0567 28.2476 33.9557C26.6584 33.9055 25.1244 34.5409 24.0363 35.7001C21.8496 38.0296 18.1504 38.0296 15.9637 35.7001C14.8756 34.5409 13.3416 33.9055 11.7524 33.9557C8.55902 34.0567 5.94329 31.441 6.04428 28.2476C6.09453 26.6584 5.45912 25.1244 4.29991 24.0363C1.97041 21.8496 1.97041 18.1504 4.29991 15.9637C5.45912 14.8756 6.09453 13.3416 6.04428 11.7524C5.94329 8.55902 8.55902 5.94329 11.7524 6.04428C13.3416 6.09453 14.8756 5.45912 15.9637 4.29991Z" fill="#E7B92E"/>
<path fill-rule="evenodd" clip-rule="evenodd" d="M16.5193 16.0874C16.5193 15.779 16.5801 15.4737 16.698 15.1889C16.816 14.904 16.989 14.6452 17.207 14.4272C17.425 14.2092 17.6838 14.0362 17.9687 13.9183C18.2535 13.8003 18.5588 13.7395 18.8671 13.7395C19.1755 13.7395 19.4808 13.8003 19.7656 13.9183C20.0505 14.0362 20.3093 14.2092 20.5273 14.4272C20.7453 14.6452 20.9183 14.904 21.0363 15.1889C21.1542 15.4737 21.215 15.779 21.215 16.0874C21.215 16.71 20.9676 17.3072 20.5273 17.7475C20.087 18.1878 19.4898 18.4352 18.8671 18.4352C18.2445 18.4352 17.6473 18.1878 17.207 17.7475C16.7667 17.3072 16.5193 16.71 16.5193 16.0874ZM18.8671 12.1743C17.8293 12.1743 16.834 12.5866 16.1002 13.3204C15.3664 14.0543 14.9541 15.0496 14.9541 16.0874C14.9541 17.1252 15.3664 18.1205 16.1002 18.8543C16.834 19.5881 17.8293 20.0004 18.8671 20.0004C19.905 20.0004 20.9003 19.5881 21.6341 18.8543C22.3679 18.1205 22.7802 17.1252 22.7802 16.0874C22.7802 15.0496 22.3679 14.0543 21.6341 13.3204C20.9003 12.5866 19.905 12.1743 18.8671 12.1743ZM13.3889 25.0874C13.3889 24.9465 13.4593 24.7047 13.7121 24.3838C13.9594 24.0708 14.3413 23.7358 14.8477 23.4274C15.8596 22.8092 17.2839 22.3482 18.8671 22.3482C19.1606 22.3482 19.4494 22.3639 19.7319 22.3944C19.9385 22.4163 20.1452 22.3553 20.3067 22.2247C20.4683 22.0942 20.5713 21.9048 20.5932 21.6983C20.6151 21.4918 20.5541 21.285 20.4235 21.1235C20.293 20.962 20.1036 20.8589 19.8971 20.837C19.5613 20.8026 19.217 20.783 18.8671 20.783C16.9928 20.783 15.2867 21.3261 14.0322 22.0915C13.4061 22.4734 12.8708 22.9242 12.4842 23.4141C12.1038 23.8947 11.8237 24.4714 11.8237 25.0874C11.8237 25.7487 12.1453 26.2699 12.6086 26.6416C13.0469 26.9938 13.6252 27.227 14.2396 27.3898C15.4745 27.7161 17.1227 27.8265 18.8671 27.8265C19.0471 27.8265 19.2271 27.8249 19.4032 27.8226C19.506 27.8212 19.6075 27.7996 19.7019 27.759C19.7963 27.7184 19.8818 27.6595 19.9535 27.5859C20.0252 27.5122 20.0817 27.4252 20.1198 27.3297C20.1578 27.2342 20.1767 27.1322 20.1753 27.0294C20.1739 26.9266 20.1523 26.8251 20.1117 26.7307C20.0711 26.6363 20.0122 26.5508 19.9386 26.4791C19.8649 26.4074 19.7779 26.3509 19.6824 26.3129C19.5869 26.2748 19.4849 26.256 19.3821 26.2574C19.2123 26.2597 19.0409 26.2613 18.8671 26.2613C17.1532 26.2613 15.6718 26.1494 14.6411 25.8762C14.1222 25.7393 13.7833 25.5773 13.5885 25.4208C13.4178 25.2838 13.3889 25.1828 13.3889 25.0874ZM22.8334 24.2907C22.7622 24.5561 22.7621 24.8357 22.8332 25.1012C22.9043 25.3667 23.044 25.6087 23.2384 25.8031C23.4327 25.9974 23.6748 26.1372 23.9403 26.2083C24.2058 26.2794 24.4853 26.2793 24.7508 26.2081L22.8334 24.2907ZM23.94 23.1841L25.8574 25.1014C25.9286 24.836 25.9287 24.5565 25.8576 24.291C25.7865 24.0255 25.6468 23.7834 25.4524 23.589C25.2581 23.3947 25.016 23.2549 24.7505 23.1838C24.485 23.1128 24.2055 23.1128 23.94 23.1841ZM21.215 24.6961C21.215 23.8658 21.5448 23.0696 22.1319 22.4825C22.7189 21.8954 23.5152 21.5656 24.3454 21.5656C25.1757 21.5656 25.9719 21.8954 26.559 22.4825C27.146 23.0696 27.4758 23.8658 27.4758 24.6961C27.4758 25.5263 27.146 26.3225 26.559 26.9096C25.9719 27.4967 25.1757 27.8265 24.3454 27.8265C23.5152 27.8265 22.7189 27.4967 22.1319 26.9096C21.5448 26.3225 21.215 25.5263 21.215 24.6961Z" fill="white" stroke="white" stroke-width="0.4"/>
</svg>
