<svg width="40" height="40" viewBox="0 0 40 40" fill="none" xmlns="http://www.w3.org/2000/svg">
<path d="M15.9637 4.29991C18.1504 1.97041 21.8496 1.97041 24.0363 4.29991C25.1244 5.45912 26.6584 6.09453 28.2476 6.04428C31.441 5.94329 34.0567 8.55902 33.9557 11.7524C33.9055 13.3416 34.5409 14.8756 35.7001 15.9637C38.0296 18.1504 38.0296 21.8496 35.7001 24.0363C34.5409 25.1244 33.9055 26.6584 33.9557 28.2476C34.0567 31.441 31.441 34.0567 28.2476 33.9557C26.6584 33.9055 25.1244 34.5409 24.0363 35.7001C21.8496 38.0296 18.1504 38.0296 15.9637 35.7001C14.8756 34.5409 13.3416 33.9055 11.7524 33.9557C8.55902 34.0567 5.94329 31.441 6.04428 28.2476C6.09453 26.6584 5.45912 25.1244 4.29991 24.0363C1.97041 21.8496 1.97041 18.1504 4.29991 15.9637C5.45912 14.8756 6.09453 13.3416 6.04428 11.7524C5.94329 8.55902 8.55902 5.94329 11.7524 6.04428C13.3416 6.09453 14.8756 5.45912 15.9637 4.29991Z" fill="#21272C"/>
<path fill-rule="evenodd" clip-rule="evenodd" d="M22.9045 10.9514C22.9796 10.9702 23.0518 10.9988 23.1193 11.0366C24.3776 11.3671 25.3915 12.4019 26.0932 13.6645C26.9645 15.2332 27.4758 17.3401 27.4758 19.621C27.4758 21.901 26.9645 24.0088 26.0932 25.5775C25.3915 26.8393 24.3776 27.874 23.1193 28.2053C23.0516 28.2432 22.979 28.2719 22.9037 28.2906C19.7141 29.0879 17.828 28.8523 16.3993 28.3253L16.1002 28.2071C16.0039 28.1672 15.9082 28.1258 15.8132 28.0827C14.5985 27.5323 13.6063 26.3662 12.9245 24.9193C12.235 23.4558 11.8237 21.6288 11.8237 19.621C11.8237 17.6132 12.235 15.7862 12.9245 14.3227C13.6063 12.8758 14.5976 11.7097 15.8124 11.1601C15.9063 11.1175 16.0019 11.0758 16.0993 11.0358L16.3993 10.9184C17.828 10.3906 19.7141 10.1549 22.9037 10.9523L22.9045 10.9514ZM16.5306 12.7427C15.8202 13.0653 15.0732 13.841 14.4976 15.0645C13.928 16.2714 13.5628 17.8427 13.5628 19.621C13.5628 21.3993 13.928 22.9706 14.4976 24.1775C15.0732 25.401 15.8193 26.1766 16.5306 26.4993C17.235 26.8184 18.115 27.1097 19.5185 27.0645C19.0878 26.6207 18.7195 26.1205 18.4237 25.5775C17.5524 24.0088 17.0411 21.901 17.0411 19.621C17.0411 17.3401 17.5524 15.2332 18.4237 13.6645C18.7198 13.1215 19.0884 12.6212 19.5193 12.1775C18.115 12.1323 17.235 12.4236 16.5306 12.7427ZM22.2585 12.6645C21.5167 12.6645 20.6628 13.2158 19.9445 14.5097C19.2411 15.774 18.7802 17.5793 18.7802 19.621C18.7802 21.6627 19.2411 23.4679 19.9445 24.7323C20.6628 26.0262 21.5167 26.5775 22.2585 26.5775C23.0002 26.5775 23.8541 26.0262 24.5724 24.7323C25.2758 23.4679 25.7367 21.6627 25.7367 19.621C25.7367 17.5793 25.2758 15.774 24.5724 14.5097C23.8541 13.2158 23.0002 12.6645 22.2585 12.6645ZM22.2585 16.1427C23.1254 16.1427 23.6758 16.8227 23.9585 17.3871C24.2671 18.0045 24.4324 18.7949 24.4324 19.621C24.4324 20.4471 24.2671 21.2384 23.9585 21.8549C23.6767 22.4193 23.1254 23.0984 22.2585 23.0984C21.3915 23.0984 20.8411 22.4193 20.5585 21.8549C20.2498 21.2375 20.0845 20.4462 20.0845 19.6201C20.0845 18.794 20.2498 18.0036 20.5585 17.3871C20.8411 16.8227 21.3915 16.1427 22.2585 16.1427ZM22.2585 17.934C22.2211 17.9775 22.1715 18.0497 22.1141 18.1653C21.9498 18.4932 21.8237 19.0062 21.8237 19.621C21.8237 20.2358 21.9498 20.7488 22.1141 21.0766C22.1715 21.1923 22.2211 21.2645 22.2585 21.308C22.2958 21.2645 22.3454 21.1923 22.4028 21.0766C22.5671 20.7488 22.6932 20.2358 22.6932 19.621C22.6932 19.0062 22.5671 18.4932 22.4028 18.1653C22.364 18.0828 22.3155 18.0052 22.2585 17.934Z" fill="white"/>
</svg>
