<svg width="40" height="40" viewBox="0 0 40 40" fill="none" xmlns="http://www.w3.org/2000/svg">
<path d="M15.9637 4.29991C18.1504 1.97041 21.8496 1.97041 24.0363 4.29991C25.1244 5.45912 26.6584 6.09453 28.2476 6.04428C31.441 5.94329 34.0567 8.55902 33.9557 11.7524C33.9055 13.3416 34.5409 14.8756 35.7001 15.9637C38.0296 18.1504 38.0296 21.8496 35.7001 24.0363C34.5409 25.1244 33.9055 26.6584 33.9557 28.2476C34.0567 31.441 31.441 34.0567 28.2476 33.9557C26.6584 33.9055 25.1244 34.5409 24.0363 35.7001C21.8496 38.0296 18.1504 38.0296 15.9637 35.7001C14.8756 34.5409 13.3416 33.9055 11.7524 33.9557C8.55902 34.0567 5.94329 31.441 6.04428 28.2476C6.09453 26.6584 5.45912 25.1244 4.29991 24.0363C1.97041 21.8496 1.97041 18.1504 4.29991 15.9637C5.45912 14.8756 6.09453 13.3416 6.04428 11.7524C5.94329 8.55902 8.55902 5.94329 11.7524 6.04428C13.3416 6.09453 14.8756 5.45912 15.9637 4.29991Z" fill="#AC4FC3"/>
<path d="M12.6927 17.6816C12.6927 17.2716 12.8556 16.8784 13.1455 16.5885C13.4354 16.2986 13.8286 16.1357 14.2386 16.1357H25.0599C25.4699 16.1357 25.8631 16.2986 26.153 16.5885C26.4429 16.8784 26.6058 17.2716 26.6058 17.6816V24.6382C26.6058 25.0482 26.4429 25.4414 26.153 25.7313C25.8631 26.0212 25.4699 26.1841 25.0599 26.1841H14.2386C13.8286 26.1841 13.4354 26.0212 13.1455 25.7313C12.8556 25.4414 12.6927 25.0482 12.6927 24.6382V17.6816Z" stroke="white" stroke-width="1.6" stroke-linecap="round" stroke-linejoin="round"/>
<path d="M16.5574 16.1348V14.5889C16.5574 14.1789 16.7203 13.7857 17.0102 13.4958C17.3001 13.2058 17.6933 13.043 18.1033 13.043H21.1951C21.6051 13.043 21.9983 13.2058 22.2882 13.4958C22.5781 13.7857 22.741 14.1789 22.741 14.5889V16.1348" stroke="white" stroke-width="1.6" stroke-linecap="round" stroke-linejoin="round"/>
<path d="M19.6496 20V20.0088" stroke="white" stroke-width="1.6" stroke-linecap="round" stroke-linejoin="round"/>
<path d="M12.6927 20.7725C14.8505 21.8598 17.2331 22.4261 19.6493 22.4261C22.0655 22.4261 24.448 21.8598 26.6058 20.7725" stroke="white" stroke-width="1.6" stroke-linecap="round" stroke-linejoin="round"/>
</svg>
