<svg width="24" height="24" viewBox="0 0 24 24" fill="none" xmlns="http://www.w3.org/2000/svg">
<g clip-path="url(#clip0_38_82)">
<path d="M5 5.77778C5 5.5715 5.08194 5.37367 5.22781 5.22781C5.37367 5.08194 5.5715 5 5.77778 5H18.2222C18.4285 5 18.6263 5.08194 18.7722 5.22781C18.9181 5.37367 19 5.5715 19 5.77778V7.33333C19 7.53961 18.9181 7.73744 18.7722 7.8833C18.6263 8.02917 18.4285 8.11111 18.2222 8.11111H5.77778C5.5715 8.11111 5.37367 8.02917 5.22781 7.8833C5.08194 7.73744 5 7.53961 5 7.33333V5.77778Z" stroke="#121417" stroke-width="1.5" stroke-linecap="round" stroke-linejoin="round"/>
<path d="M10 14C10 14.5304 10.2107 15.0391 10.5858 15.4142C10.9609 15.7893 11.4696 16 12 16C12.5304 16 13.0391 15.7893 13.4142 15.4142C13.7893 15.0391 14 14.5304 14 14C14 13.4696 13.7893 12.9609 13.4142 12.5858C13.0391 12.2107 12.5304 12 12 12C11.4696 12 10.9609 12.2107 10.5858 12.5858C10.2107 12.9609 10 13.4696 10 14Z" stroke="#121417" stroke-width="1.5" stroke-linecap="round" stroke-linejoin="round"/>
<path d="M17.4444 8.11133V13.5558C17.4444 14.9997 16.8708 16.3845 15.8498 17.4056C14.8288 18.4266 13.4439 19.0002 12 19.0002C10.556 19.0002 9.17121 18.4266 8.15018 17.4056C7.12915 16.3845 6.55554 14.9997 6.55554 13.5558V8.11133" stroke="#121417" stroke-width="1.5" stroke-linecap="round" stroke-linejoin="round"/>
</g>
<defs>
<clipPath id="clip0_38_82">
<rect width="24" height="24" fill="white"/>
</clipPath>
</defs>
</svg>
