<svg width="24" height="24" viewBox="0 0 24 24" fill="none" xmlns="http://www.w3.org/2000/svg">
<path fill-rule="evenodd" clip-rule="evenodd" d="M18.9647 7.82428L19.8071 10.9692C19.8625 11.1757 19.8767 11.3911 19.8488 11.6031C19.8209 11.8151 19.7516 12.0195 19.6447 12.2046C19.5379 12.3898 19.3956 12.5521 19.2259 12.6823C19.0563 12.8125 18.8628 12.9079 18.6562 12.9633L16.7444 13.4752V14.7287C16.7444 14.9445 16.8301 15.1515 16.9828 15.3042C17.1354 15.4568 17.3424 15.5426 17.5583 15.5426H18.3722C18.3722 15.3267 18.4579 15.1197 18.6106 14.967C18.7632 14.8144 18.9702 14.7287 19.1861 14.7287C19.402 14.7287 19.609 14.8144 19.7616 14.967C19.9143 15.1197 20 15.3267 20 15.5426V17.1704C20 17.3862 19.9143 17.5933 19.7616 17.7459C19.609 17.8985 19.402 17.9843 19.1861 17.9843C18.9702 17.9843 18.7632 17.8985 18.6106 17.7459C18.4579 17.5933 18.3722 17.3862 18.3722 17.1704H17.5583C16.9107 17.1704 16.2896 16.9131 15.8317 16.4552C15.3738 15.9973 15.1166 15.3762 15.1166 14.7287V13.9115L9.8164 15.3309C9.47466 15.4225 9.1124 15.4002 8.78447 15.2674C8.45653 15.1346 8.18078 14.8987 7.99895 14.5952L5.5442 10.5045C5.44707 10.3424 5.38887 10.16 5.37418 9.97169C5.3595 9.78333 5.38873 9.59413 5.45957 9.41898C5.53042 9.24384 5.64095 9.08753 5.78246 8.96235C5.92398 8.83717 6.09261 8.74655 6.27509 8.6976L15.9744 6.0988C16.5999 5.93124 17.2663 6.01898 17.8271 6.34271C18.3878 6.66645 18.797 7.19885 18.9647 7.82428ZM4.39985 10.9155C4.57148 10.8141 4.77435 10.7793 4.96997 10.8175C5.1656 10.8558 5.34039 10.9645 5.46119 11.123L5.51409 11.202L6.83669 13.4394C6.94078 13.6181 6.97298 13.8296 6.92674 14.0312C6.88051 14.2327 6.7593 14.4091 6.58774 14.5245C6.41618 14.6399 6.20713 14.6857 6.00303 14.6526C5.79894 14.6194 5.6151 14.5099 5.48886 14.3461L5.43596 14.268L4.11336 12.0297C4.05893 11.9377 4.02317 11.8359 4.00811 11.73C3.99306 11.6242 3.999 11.5164 4.0256 11.4129C4.05221 11.3093 4.09895 11.212 4.16317 11.1265C4.22738 11.0411 4.30781 10.9699 4.39985 10.9155ZM16.396 7.67045L7.2176 10.1293L9.39398 13.7593L18.2355 11.3908L17.3922 8.24589C17.3363 8.03753 17.2 7.85989 17.0132 7.75199C16.8264 7.64409 16.6044 7.61477 16.396 7.67045Z" fill="#121417"/>
</svg>
