<svg width="16" height="19" viewBox="0 0 16 19" fill="none" xmlns="http://www.w3.org/2000/svg">
<path d="M9.85715 1.14307V4.85735C9.85715 5.10362 9.95498 5.33981 10.1291 5.51395C10.3033 5.68809 10.5394 5.78592 10.7857 5.78592H14.5" stroke="#121417" stroke-width="1.5" stroke-linecap="round" stroke-linejoin="round"/>
<path d="M12.6429 17.8574H3.35714C2.8646 17.8574 2.39223 17.6617 2.04394 17.3134C1.69566 16.9651 1.5 16.4928 1.5 16.0002V3.00021C1.5 2.50766 1.69566 2.03529 2.04394 1.68701C2.39223 1.33873 2.8646 1.14307 3.35714 1.14307H9.85714L14.5 5.78592V16.0002C14.5 16.4928 14.3043 16.9651 13.9561 17.3134C13.6078 17.6617 13.1354 17.8574 12.6429 17.8574Z" stroke="#121417" stroke-width="1.5" stroke-linecap="round" stroke-linejoin="round"/>
<path d="M5.21428 12.2861H10.7857" stroke="#121417" stroke-width="1.5" stroke-linecap="round" stroke-linejoin="round"/>
<path d="M8.46428 14.6072L10.7857 12.2858L8.46428 9.96436" stroke="#121417" stroke-width="1.5" stroke-linecap="round" stroke-linejoin="round"/>
</svg>
