<svg width="40" height="40" viewBox="0 0 40 40" fill="none" xmlns="http://www.w3.org/2000/svg">
<rect width="40" height="40" rx="20" fill="#F5F7F9"/>
<path d="M24.0559 20.6453L24.0559 26.4727" stroke="#5C4FC3" stroke-width="2" stroke-linecap="round" stroke-linejoin="round"/>
<path d="M16.0303 19.3545L16.0303 13.5272" stroke="#5C4FC3" stroke-width="2" stroke-linecap="round" stroke-linejoin="round"/>
<path fill-rule="evenodd" clip-rule="evenodd" d="M15.9803 22.1288C14.782 22.1288 13.8103 23.1075 13.8103 24.3144C13.8103 25.5213 14.782 26.5 15.9803 26.5C17.1786 26.5 18.1503 25.5213 18.1503 24.3144C18.1503 23.1075 17.1786 22.1288 15.9803 22.1288Z" stroke="#5C4FC3" stroke-width="2" stroke-linecap="round" stroke-linejoin="round"/>
<path fill-rule="evenodd" clip-rule="evenodd" d="M24.0197 13.4999C22.8214 13.4999 21.8497 14.4778 21.8497 15.6847C21.8497 16.8924 22.8214 17.8711 24.0197 17.8711C25.218 17.8711 26.1897 16.8924 26.1897 15.6847C26.1897 14.4778 25.218 13.4999 24.0197 13.4999Z" stroke="#5C4FC3" stroke-width="2" stroke-linecap="round" stroke-linejoin="round"/>
</svg>
