<svg width="150" height="44" viewBox="0 0 150 44" fill="none" xmlns="http://www.w3.org/2000/svg">
<path d="M36.9348 12.3599C36.1987 11.107 35.1472 10.0368 33.8328 9.27978C31.8875 8.17042 29.6004 7.84414 27.4185 8.37924C25.7492 8.78383 24.1588 9.4364 22.7655 10.3239L14.0641 15.7793V40.3941L11.5668 38.5278V14.422L19.7949 9.25368C19.7949 9.25368 19.8081 9.25368 19.8081 9.24063C22.2397 7.80499 24.7634 5.91254 28.3912 6.14747L27.7208 5.76898L25.2103 4.33334C25.1051 4.28113 25 4.21587 24.8948 4.17672C24.1982 3.78518 23.4359 3.61551 22.6604 3.61551C20.4916 3.61551 18.1782 4.89454 16.6272 5.9517L7.03207 12.5296V35.1344L4.5347 33.2681V11.2244L13.1835 5.28608C16.2461 3.19787 18.3622 1.9841 21.0173 1.91884L20.3864 1.55341L19.6372 1.12271C16.6667 -0.560904 12.9995 -0.339032 10.2787 1.69697L0 9.38419V34.1164L10.2787 41.8036C12.9995 43.8396 16.6667 44.0615 19.6109 42.3779L22.3975 40.7726L33.8197 34.2208C36.4485 32.7199 38.052 29.94 38.052 26.9382V16.5624C38.0783 15.0615 37.6709 13.6128 36.9348 12.3599ZM34.6609 26.9382C34.6609 28.7262 33.6882 30.3968 32.1241 31.2973L18.5857 39.0629V17.737L26.8007 13.0255C26.8139 13.0255 26.8139 13.0125 26.827 13.0125C27.2345 12.7645 29.4427 11.2375 31.848 12.3207C33.6751 13.143 34.4506 14.2393 34.6214 16.6016C34.6214 16.6277 34.6214 16.6538 34.6214 16.6799C34.6477 16.9801 34.6609 17.2933 34.6609 17.6326V26.9382Z" fill="url(#paint0_linear_11_710)"/>
<path d="M28.9038 14.6956L21.0699 19.1853V34.7686L30.8622 29.1565C31.6509 28.6997 32.1372 27.8644 32.1372 26.9508V16.5489C32.1372 14.9045 30.3365 13.8734 28.9038 14.6956Z" fill="url(#paint1_linear_11_710)"/>
<path d="M59.9895 13.9387C58.9905 13.1165 57.7813 12.5161 56.388 12.1246C54.9816 11.7461 53.4306 11.5503 51.7087 11.5503C50.8938 11.5503 49.9211 11.5894 48.7907 11.6547C47.6604 11.72 46.5694 11.8505 45.531 12.0462V31.4666C46.5694 31.6754 47.6341 31.819 48.725 31.8842C49.8028 31.9495 50.7492 31.9886 51.5641 31.9886C53.3386 31.9886 54.9422 31.7798 56.3749 31.3491C57.8076 30.9315 59.0168 30.292 60.0158 29.4436C61.0147 28.5953 61.7771 27.5381 62.316 26.2461C62.8549 24.967 63.1309 23.4531 63.1309 21.7303C63.1309 19.9292 62.8549 18.3892 62.316 17.0971C61.7771 15.8181 61.0016 14.7609 59.9895 13.9387ZM56.8218 26.4288C55.7308 27.5643 54.0484 28.1255 51.7876 28.1255C51.4064 28.1255 51.0647 28.1255 50.7886 28.1124C50.5126 28.0994 50.2629 28.0863 50.0526 28.0733V15.4657C50.3417 15.4265 50.6572 15.4004 50.9858 15.3874C51.3144 15.3743 51.6299 15.3743 51.9453 15.3743C54.2061 15.3743 55.8622 15.9094 56.9006 16.9796C57.939 18.0498 58.4648 19.6421 58.4648 21.7303C58.4516 23.7272 57.9127 25.2933 56.8218 26.4288Z" fill="#29397C"/>
<path d="M73.3307 28.3081C72.8444 28.3995 72.358 28.4386 71.898 28.4386C70.9253 28.4386 70.2944 28.1646 69.9658 27.6295C69.6504 27.0944 69.4926 26.3765 69.4926 25.476V20.1511H74.6845V16.5881H69.4926V12.1245L65.1682 12.8162V25.5413C65.1682 26.5201 65.2602 27.4076 65.4443 28.2168C65.6283 29.0259 65.9569 29.7046 66.4169 30.2789C66.877 30.8401 67.4947 31.2838 68.2702 31.5971C69.0457 31.9103 70.0184 32.0669 71.2014 32.0669C72.1346 32.0669 72.9101 31.9886 73.5542 31.832C74.1982 31.6754 74.7766 31.4926 75.2892 31.2838L74.6845 27.9427C74.2771 28.1124 73.817 28.2298 73.3307 28.3081Z" fill="#29397C"/>
<path d="M86.1856 19.0157C85.949 19.8901 85.6861 20.7645 85.4233 21.6651C85.1604 22.5526 84.8975 23.427 84.6215 24.2753C84.3454 25.1237 84.0826 25.8806 83.8328 26.5724C83.5568 25.8806 83.2676 25.1106 82.9785 24.2753C82.6761 23.427 82.387 22.5656 82.0847 21.6651C81.7955 20.7776 81.5195 19.8901 81.2566 19.0157C80.9937 18.1412 80.7703 17.332 80.5731 16.5881H75.999C76.8665 19.5638 77.7997 22.2393 78.7855 24.6277C79.7713 27.0161 80.7571 29.1696 81.7429 31.0881C81.4538 31.819 81.0989 32.3932 80.6782 32.7978C80.2576 33.2155 79.6662 33.4112 78.8907 33.4112C78.5095 33.4112 78.1414 33.3851 77.7866 33.3199C77.4448 33.2677 77.0373 33.1502 76.6036 33.0066L75.8544 36.4261C76.2224 36.5827 76.6956 36.7132 77.2608 36.8437C77.826 36.9742 78.4569 37.0265 79.1272 37.0265C79.9422 37.0265 80.652 36.9351 81.2566 36.7524C81.8612 36.5697 82.4133 36.2825 82.8996 35.891C83.3859 35.4994 83.8328 35.0035 84.2403 34.3901C84.6478 33.7897 85.0552 33.0458 85.4627 32.1844C86.5799 29.783 87.6183 27.3163 88.5778 24.7582C89.5242 22.2132 90.4311 19.4725 91.3118 16.562H86.8428C86.6456 17.332 86.4353 18.1412 86.1856 19.0157Z" fill="#29397C"/>
<path d="M97.6078 27.6949C97.4369 27.4861 97.3318 27.225 97.2792 26.9118C97.2266 26.5986 97.1872 26.2592 97.1872 25.8808V9.39697L92.8628 10.0887V26.7552C92.8628 27.5644 92.9417 28.2822 93.1125 28.9217C93.2703 29.5612 93.5857 30.1094 94.0458 30.5662C94.5058 31.023 95.1236 31.3623 95.8991 31.6103C96.6877 31.8583 97.6998 31.9888 98.9616 32.0149L99.5663 28.478C99.0405 28.4388 98.633 28.3475 98.3176 28.2169C98.0153 28.0734 97.7787 27.9037 97.6078 27.6949Z" fill="#29397C"/>
<path d="M107.886 16.1836C106.953 16.1836 106.059 16.3533 105.179 16.7056C104.298 17.045 103.523 17.554 102.839 18.2326C102.169 18.8983 101.617 19.7466 101.196 20.7515C100.776 21.7565 100.578 22.9311 100.578 24.2754C100.578 25.3848 100.736 26.4289 101.052 27.3816C101.367 28.3474 101.866 29.1696 102.524 29.8744C103.194 30.5792 104.035 31.1273 105.047 31.5319C106.059 31.9365 107.256 32.1323 108.623 32.1323C109.161 32.1323 109.7 32.1062 110.239 32.0409C110.778 31.9887 111.291 31.9104 111.764 31.819C112.237 31.7277 112.671 31.6363 113.052 31.5189C113.433 31.4014 113.749 31.2839 113.985 31.1795L113.407 27.6948C112.921 27.9037 112.303 28.0864 111.541 28.2299C110.778 28.3735 110.003 28.4518 109.214 28.4518C107.978 28.4518 106.993 28.1908 106.257 27.6687C105.521 27.1467 105.113 26.455 105.008 25.5675H114.8C114.813 25.3326 114.84 25.0715 114.853 24.7713C114.866 24.4712 114.879 24.1971 114.879 23.9491C114.879 21.4041 114.248 19.4595 113 18.1543C111.764 16.8362 110.055 16.1836 107.886 16.1836ZM105.021 22.6309C105.074 22.2655 105.166 21.9131 105.297 21.5477C105.429 21.1953 105.599 20.8821 105.836 20.608C106.073 20.3339 106.362 20.1251 106.704 19.9554C107.045 19.7988 107.466 19.7074 107.952 19.7074C108.452 19.7074 108.872 19.7988 109.214 19.9685C109.556 20.1381 109.832 20.36 110.055 20.6341C110.279 20.9082 110.436 21.2083 110.555 21.5607C110.66 21.9001 110.726 22.2655 110.739 22.6309H105.021Z" fill="#29397C"/>
<path d="M120.912 27.4731C120.36 27.0163 119.742 26.7944 119.046 26.7944C118.349 26.7944 117.731 27.0163 117.179 27.4731C116.627 27.9299 116.351 28.5825 116.351 29.4439C116.351 30.3052 116.627 30.9709 117.179 31.4146C117.731 31.8714 118.349 32.0933 119.046 32.0933C119.742 32.0933 120.36 31.8714 120.912 31.4146C121.464 30.9578 121.74 30.3052 121.74 29.4439C121.74 28.5825 121.464 27.9299 120.912 27.4731Z" fill="#29397C"/>
<path d="M139.235 20.6209C138.578 19.0156 137.934 17.4755 137.303 16.0268C136.659 14.5781 136.015 13.1686 135.358 11.7852H131.073C130.389 13.1686 129.745 14.5781 129.114 16.0268C128.483 17.4755 127.839 19.0025 127.195 20.6209C126.551 22.2262 125.881 23.949 125.21 25.7762C124.527 27.6033 123.817 29.5871 123.055 31.7275H127.747C127.971 31.0358 128.207 30.3311 128.457 29.6002C128.707 28.8693 128.97 28.1384 129.219 27.4076H137.066C137.316 28.1254 137.579 28.8563 137.829 29.5871C138.092 30.318 138.328 31.0228 138.552 31.7275H143.389C142.626 29.5741 141.916 27.5903 141.233 25.7762C140.549 23.949 139.892 22.2262 139.235 20.6209ZM130.245 23.8315C130.56 22.9701 130.875 22.1479 131.178 21.3648C131.48 20.5817 131.756 19.8639 132.006 19.2113C132.256 18.5588 132.479 17.9845 132.663 17.4886C132.86 16.9926 133.005 16.6011 133.11 16.3009C133.228 16.588 133.386 16.9796 133.583 17.4755C133.78 17.9715 134.004 18.5457 134.267 19.1983C134.529 19.8509 134.806 20.5687 135.082 21.3648C135.371 22.1479 135.673 22.9832 135.975 23.8446H130.245V23.8315Z" fill="#29397C"/>
<path d="M150 12.216C150 12.9991 149.737 13.6256 149.238 14.0693C148.725 14.5261 148.12 14.748 147.424 14.748C146.727 14.748 146.123 14.5261 145.61 14.0693C145.097 13.6125 144.848 12.9991 144.848 12.216C144.848 11.433 145.097 10.8065 145.61 10.3628C146.123 9.90595 146.727 9.68408 147.424 9.68408C148.12 9.68408 148.725 9.90595 149.238 10.3628C149.737 10.8065 150 11.4199 150 12.216ZM149.593 31.7277H145.268V16.5882H149.593V31.7277Z" fill="#29397C"/>
<defs>
<linearGradient id="paint0_linear_11_710" x1="4.90987" y1="4.17142" x2="29.0784" y2="38.5836" gradientUnits="userSpaceOnUse">
<stop stop-color="#2FE6CF"/>
<stop offset="1" stop-color="#5C4FC3"/>
</linearGradient>
<linearGradient id="paint1_linear_11_710" x1="9.32985" y1="1.06673" x2="33.4984" y2="35.4789" gradientUnits="userSpaceOnUse">
<stop stop-color="#2FE6CF"/>
<stop offset="1" stop-color="#5C4FC3"/>
</linearGradient>
</defs>
</svg>
