<svg width="40" height="40" viewBox="0 0 40 40" fill="none" xmlns="http://www.w3.org/2000/svg">
<rect width="40" height="40" rx="20" fill="#ECEAFF"/>
<g clip-path="url(#clip0_73_3847)">
<path d="M26.4674 20.8425C26.5875 19.9226 26.5099 18.9877 26.2399 18.1001C25.9698 17.2126 25.5134 16.3929 24.9013 15.6958C24.2891 14.9988 23.5352 14.4404 22.69 14.0579C21.8448 13.6754 20.9277 13.4777 20 13.478C18.2703 13.478 16.6115 14.1651 15.3884 15.3882C14.1654 16.6113 13.4783 18.2701 13.4783 19.9998C13.4783 21.7294 14.1654 23.3883 15.3884 24.6113C16.6115 25.8344 18.2703 26.5215 20 26.5215" stroke="#5C4FC3" stroke-width="2" stroke-linecap="round" stroke-linejoin="round"/>
<path d="M17.8261 18.5508H17.8336" stroke="#5C4FC3" stroke-width="2" stroke-linecap="round" stroke-linejoin="round"/>
<path d="M22.1739 18.5508H22.1814" stroke="#5C4FC3" stroke-width="2" stroke-linecap="round" stroke-linejoin="round"/>
<path d="M18.1884 22.1738C18.6652 22.6376 19.3188 22.8985 20 22.8985C20.6812 22.8985 21.3348 22.6376 21.8116 22.1738" stroke="#5C4FC3" stroke-width="2" stroke-linecap="round" stroke-linejoin="round"/>
<path d="M22.1739 25.0723L23.6232 26.5216L26.5217 23.623" stroke="#5C4FC3" stroke-width="2" stroke-linecap="round" stroke-linejoin="round"/>
</g>
<defs>
<clipPath id="clip0_73_3847">
<rect width="17.3913" height="17.3913" fill="white" transform="translate(11.3044 11.3042)"/>
</clipPath>
</defs>
</svg>
