<svg width="40" height="40" viewBox="0 0 40 40" fill="none" xmlns="http://www.w3.org/2000/svg">
<rect width="40" height="40" rx="20" fill="#FFF8E4"/>
<path d="M20 19.5C22 16.54 20 12.5 19 11.5C19 14.538 17.227 16.241 16 17.5C14.774 18.76 14 20.74 14 22.5C14 24.0913 14.6321 25.6174 15.7574 26.7426C16.8826 27.8679 18.4087 28.5 20 28.5C21.5913 28.5 23.1174 27.8679 24.2426 26.7426C25.3679 25.6174 26 24.0913 26 22.5C26 20.968 24.944 18.56 24 17.5C22.214 20.5 21.209 20.5 20 19.5Z" stroke="#E7B92E" stroke-width="2" stroke-linecap="round" stroke-linejoin="round"/>
</svg>
